<svg fill="#000" xmlns="http://www.w3.org/2000/svg" width="169" height="24" viewBox="0 0 169 24"><path d="M8.11 4.452C3.958 4.452.562 7.849.562 12c0 4.152 3.396 7.549 7.548 7.549 4.151 0 7.548-3.376 7.548-7.549A7.543 7.543 0 0 0 8.11 4.452Zm0 12.392c-2.58 0-4.655-2.118-4.655-4.844 0-2.725 2.076-4.843 4.655-4.843S12.765 9.275 12.765 12c0 2.726-2.076 4.844-4.655 4.844ZM23.29 8.645c-1.363 0-2.684.545-3.376 1.468V8.855h-2.726v14.677h2.726v-5.305c.692.86 1.971 1.321 3.376 1.321 2.935 0 5.242-2.306 5.242-5.451 0-3.145-2.307-5.452-5.242-5.452Zm-.461 8.534c-1.552 0-2.936-1.216-2.936-3.082 0-1.866 1.384-3.082 2.936-3.082 1.551 0 2.935 1.216 2.935 3.082 0 1.866-1.384 3.082-2.935 3.082ZM34.948 8.645c-2.977 0-5.325 2.328-5.325 5.452s2.054 5.451 5.41 5.451c2.746 0 4.507-1.656 5.052-3.522h-2.663c-.335.776-1.278 1.32-2.41 1.32-1.406 0-2.475-.985-2.727-2.39h7.926v-1.069c0-2.851-1.992-5.242-5.263-5.242Zm-2.642 4.382c.294-1.32 1.384-2.18 2.705-2.18 1.405 0 2.474.922 2.6 2.18h-5.305ZM47.466 8.645c-1.217 0-2.495.545-3.083 1.447V8.855h-2.725v10.484h2.725v-5.64c0-1.636.881-2.705 2.307-2.705 1.32 0 2.034 1.006 2.034 2.41v5.935h2.725v-6.374c0-2.6-1.593-4.32-3.983-4.32ZM58.43 4.662l-5.933 14.677h2.914l1.258-3.208h6.752l1.258 3.208h2.956L61.743 4.662H58.43Zm-.817 9.037 2.432-6.144 2.411 6.144h-4.843ZM71.514 4.662h-2.768v14.677h2.768V4.662ZM93.11 4.661h-6.5v14.677h2.768v-5.514h3.753c2.894 0 4.948-1.698 4.948-4.55 0-2.851-2.054-4.613-4.969-4.613Zm-.188 6.73h-3.544V7.178h3.544c1.425 0 2.348.818 2.348 2.097 0 1.28-.923 2.118-2.348 2.118ZM102.399 4.661h-2.726v14.677h2.726V4.661ZM113.575 12.502c0-2.39-1.636-3.858-4.655-3.858-2.474 0-4.445 1.384-4.781 3.397h2.748c.209-.692.963-1.237 2.012-1.237 1.363 0 2.013.713 2.013 1.95v.063l-2.663.23c-2.789.231-4.34 1.364-4.34 3.502 0 1.803 1.551 2.998 3.711 2.998 1.447 0 2.851-.566 3.439-1.51 0 .462.042.881.126 1.3h2.537c-.106-.67-.147-1.446-.147-2.348v-4.487Zm-2.663 2.495c0 1.238-.923 2.496-2.789 2.496-1.006 0-1.551-.483-1.551-1.195 0-.776.524-1.258 1.698-1.363l2.642-.231v.293ZM119.298 5.457h-2.725v3.397h-2.18v2.201h2.18v5.158c0 1.992 1.027 3.124 3.229 3.124h2.18v-2.264h-1.383c-.923 0-1.301-.314-1.301-1.174v-4.844h2.684V8.854h-2.684V5.457ZM127.811 8.142c0-.755.336-1.216 1.259-1.216h1.95V4.66h-2.306c-2.37 0-3.628 1.216-3.628 3.23v.964h-2.18v2.201h2.18v8.282h2.725v-8.282h2.685V8.855h-2.685v-.713ZM136.428 8.645c-3.123 0-5.535 2.474-5.535 5.451 0 2.977 2.412 5.451 5.535 5.451 3.124 0 5.536-2.474 5.536-5.451 0-2.977-2.412-5.451-5.536-5.451Zm0 8.47c-1.446 0-2.831-1.174-2.831-3.019 0-1.845 1.385-3.02 2.831-3.02 1.447 0 2.831 1.175 2.831 3.02s-1.384 3.02-2.831 3.02ZM146.115 10.448V8.855h-2.704V19.34h2.725v-4.97c0-1.991 1.006-2.998 2.789-2.998h.839V8.73h-.545c-1.321 0-2.559.65-3.104 1.72ZM163.854 8.645c-1.636 0-2.873.629-3.627 1.76-.651-1.11-1.845-1.76-3.23-1.76-1.3 0-2.474.545-3.061 1.446V8.854h-2.726v10.484h2.726v-5.64c0-1.636.86-2.705 2.265-2.705 1.299 0 2.013 1.006 2.013 2.411v5.934h2.725v-5.64c0-1.636.88-2.705 2.265-2.705 1.3 0 2.013 1.006 2.013 2.411v5.934h2.725v-6.374c0-2.6-1.656-4.32-4.088-4.32Z" fill="var(--text-primary)"></path></svg>